<svg version="1.1" id="Layer_1" xmlns="http://www.w3.org/2000/svg" xmlns:xlink="http://www.w3.org/1999/xlink" x="0px" y="0px" width="100%" viewBox="0 0 1024 1024" enable-background="new 0 0 1024 1024" xml:space="preserve">
<path fill="#0D0C0E" opacity="1.000000" stroke="none" d="
M479.000000,1025.000000 
	C319.333344,1025.000000 160.166672,1025.000000 1.000000,1025.000000 
	C1.000000,683.666687 1.000000,342.333344 1.000000,1.000000 
	C342.333344,1.000000 683.666687,1.000000 1025.000000,1.000000 
	C1025.000000,342.333344 1025.000000,683.666687 1025.000000,1025.000000 
	C843.166687,1025.000000 661.333313,1025.000000 479.000000,1025.000000 
M400.806763,557.187683 
	C401.024292,556.867371 401.241852,556.547119 401.335999,556.256348 
	C401.335999,556.256348 401.374481,556.377258 401.898926,556.093079 
	C402.812836,555.061157 403.726746,554.029236 405.221161,552.598511 
	C416.819550,540.411682 428.417938,528.224854 440.516022,515.885498 
	C440.692383,515.596680 440.868713,515.307922 441.001099,514.997498 
	C441.001099,514.997498 441.025635,515.039795 441.613342,514.780823 
	C442.583923,513.642090 443.554504,512.503418 444.543060,511.357208 
	C444.543060,511.357208 444.551880,511.339935 445.081787,510.974579 
	C453.493774,502.236816 461.905762,493.499054 470.512512,484.558990 
	C486.069397,496.201721 501.484863,507.738647 517.198914,519.767334 
	C518.133789,520.414124 519.068604,521.060852 520.466797,522.227844 
	C522.586182,523.663574 524.705505,525.099304 527.177002,527.007507 
	C528.548950,528.077515 529.920898,529.147583 531.716248,530.780457 
	C533.423523,531.930725 535.130859,533.080994 536.843750,534.157715 
	C536.843750,534.157715 536.771362,534.171448 537.031799,534.676819 
	C537.502319,534.994446 537.972839,535.312073 538.476318,535.725708 
	C538.476318,535.725708 538.576904,535.712097 538.737915,535.965088 
	C538.737915,535.965088 539.036499,535.993469 539.394775,536.616333 
	C545.070862,540.623718 551.279907,544.058105 556.321777,548.747375 
	C570.729614,562.147522 591.636353,562.739014 605.657532,549.189209 
	C612.557129,542.521484 618.966064,535.335754 625.448486,528.248657 
	C640.042786,512.293091 654.544556,496.252777 669.689941,479.934540 
	C703.559937,443.221497 737.429932,406.508423 771.376953,369.711884 
	C772.095337,370.235229 772.649048,370.583313 773.140137,371.004486 
	C785.524109,381.625763 797.891663,392.266205 810.285889,402.875580 
	C814.160278,406.192047 818.473083,408.305450 823.535339,405.844940 
	C828.089661,403.631287 828.473938,399.123566 828.804199,394.758179 
	C830.217041,376.084625 831.462036,357.397095 833.040283,338.737640 
	C835.543274,309.143829 838.305237,279.571991 840.867188,249.983047 
	C841.648682,240.956757 837.597107,237.260223 828.660461,238.841949 
	C818.032349,240.723068 807.468323,242.966232 796.842224,244.859924 
	C757.250366,251.915665 717.626160,258.793488 678.079102,266.090363 
	C674.975586,266.662994 671.447144,269.382935 669.767761,272.118744 
	C667.575928,275.689423 668.859924,279.882294 671.947205,283.081207 
	C672.872314,284.039734 673.803223,285.002289 674.812927,285.867981 
	C681.378784,291.497742 688.003540,297.059204 694.538147,302.724792 
	C701.632202,308.875366 708.649109,315.114899 715.939514,321.526581 
	C669.141418,372.076263 622.907776,422.016174 576.504700,472.139130 
	C567.736694,465.578918 559.492249,459.406097 551.243286,453.239349 
	C530.048462,437.394592 509.023468,421.315247 487.596039,405.791473 
	C472.900238,395.144623 451.869293,396.963379 439.911591,409.303253 
	C430.175659,419.350372 420.681885,429.631683 411.030609,439.761383 
	C388.511475,463.396912 365.936768,486.979553 343.438538,510.634888 
	C335.184937,519.312988 327.083466,528.135742 318.961884,536.933594 
	C318.961884,536.933594 318.957703,536.869507 318.454376,537.056030 
	C318.284607,537.359192 318.114868,537.662292 317.402802,538.189453 
	C316.932251,538.794617 316.461700,539.399719 315.451569,540.234497 
	C314.970398,540.837708 314.489227,541.440979 313.525665,542.186768 
	C313.352875,542.465088 313.180054,542.743408 312.692688,543.060730 
	C312.692688,543.060730 312.517975,543.325134 312.307495,543.347351 
	C312.307495,543.347351 312.306549,543.559021 312.046631,543.711609 
	C312.046631,543.711609 312.008545,544.010620 311.397797,544.281128 
	C298.231720,558.154236 285.065643,572.027283 271.945862,585.931458 
	C271.945862,585.931458 271.916260,585.884888 271.310608,586.155029 
	C269.553558,588.104248 267.796509,590.053467 265.976685,592.030029 
	C265.976685,592.030029 266.007324,592.091248 265.726349,592.255432 
	C265.548553,592.405518 265.463867,592.596802 264.868286,593.225403 
	C257.090424,601.470459 249.312576,609.715515 240.992294,618.267761 
	C229.345367,630.572937 217.698441,642.878174 205.540924,655.436829 
	C205.238968,655.914368 204.937012,656.391968 204.856934,656.882385 
	C204.856934,656.882385 204.865707,656.660339 204.294983,656.882935 
	C204.084915,657.223267 203.874832,657.563660 203.782318,657.861389 
	C203.782318,657.861389 203.734421,657.745850 203.122467,658.037720 
	C200.536758,660.754883 198.043457,663.567932 195.345917,666.169189 
	C189.899902,671.420837 184.929016,677.001465 183.007584,684.548645 
	C178.750290,701.270691 186.147888,717.927917 201.489502,726.475525 
	C216.886948,735.054138 234.111832,732.147034 245.819717,719.230408 
	C253.457764,710.803894 261.353882,702.611206 269.737854,693.994141 
	C280.500580,682.674133 291.263275,671.354065 302.535278,659.851685 
	C302.889374,659.443542 303.243469,659.035461 303.673248,658.616699 
	C303.673248,658.616699 303.682953,658.540955 304.169678,658.178650 
	C304.962097,657.256897 305.754486,656.335083 306.393524,655.383240 
	C306.393524,655.383240 306.375366,655.538452 306.883270,655.236755 
	C307.097321,654.910767 307.311340,654.584778 307.290344,654.268494 
	C307.290344,654.268494 307.308899,654.502991 307.842224,654.229858 
	C308.068848,653.906860 308.295441,653.583801 308.289001,653.270569 
	C308.289001,653.270569 308.307617,653.503052 308.841278,653.229004 
	C309.067963,652.905518 309.294647,652.581970 309.286957,652.268127 
	C309.286957,652.268127 309.305481,652.501953 309.840332,652.222046 
	C310.062622,651.892334 310.284882,651.562683 310.262665,651.243652 
	C310.262665,651.243652 310.281311,651.487671 310.823608,651.213257 
	C311.045105,650.880371 311.266602,650.547485 311.252502,650.245789 
	C311.252502,650.245789 311.291290,650.480225 311.796753,650.240784 
	C312.128052,649.809814 312.459320,649.378906 313.357147,648.618652 
	C314.343994,647.459595 315.330872,646.300598 316.911041,644.869934 
	C326.942871,634.243958 336.974701,623.617981 347.584625,612.790405 
	C348.250153,612.022583 348.915680,611.254700 349.501740,610.482910 
	C349.501740,610.482910 349.516357,610.561096 350.020844,610.177307 
	C350.849945,609.226013 351.679047,608.274780 352.297821,607.280457 
	C352.297821,607.280457 352.263580,607.492432 352.814148,607.199402 
	C353.023529,606.846802 353.232910,606.494202 353.464783,606.087769 
	C353.464783,606.087769 353.497070,606.143677 354.070618,605.876892 
	C367.047729,592.249817 380.024841,578.622803 393.560364,564.783630 
	C394.230133,564.051880 394.899872,563.320129 395.516449,562.493042 
	C395.516449,562.493042 395.614563,562.540894 396.099457,562.160278 
	C396.895569,561.220093 397.691681,560.279907 398.330597,559.315796 
	C398.330597,559.315796 398.316742,559.474182 398.838501,559.206360 
	C399.047485,558.881836 399.256439,558.557312 399.263672,558.239014 
	C399.263672,558.239014 399.277893,558.440369 399.811768,558.193848 
	C400.029205,557.874390 400.246643,557.554932 400.262482,557.239563 
	C400.262482,557.239563 400.274567,557.440857 400.806763,557.187683 
z" data-index="0" style="opacity: 1; visibility: visible; fill: rgb(0, 0, 0);"></path>
<path fill="#37ACF8" opacity="1.000000" stroke="none" d="
M318.912598,536.892517 
	C327.083466,528.135742 335.184937,519.312988 343.438538,510.634888 
	C365.936768,486.979553 388.511475,463.396912 411.030609,439.761383 
	C420.681885,429.631683 430.175659,419.350372 439.911591,409.303253 
	C451.869293,396.963379 472.900238,395.144623 487.596039,405.791473 
	C509.023468,421.315247 530.048462,437.394592 551.243286,453.239349 
	C559.492249,459.406097 567.736694,465.578918 576.504700,472.139130 
	C622.907776,422.016174 669.141418,372.076263 715.939514,321.526581 
	C708.649109,315.114899 701.632202,308.875366 694.538147,302.724792 
	C688.003540,297.059204 681.378784,291.497742 674.812927,285.867981 
	C673.803223,285.002289 672.872314,284.039734 671.947205,283.081207 
	C668.859924,279.882294 667.575928,275.689423 669.767761,272.118744 
	C671.447144,269.382935 674.975586,266.662994 678.079102,266.090363 
	C717.626160,258.793488 757.250366,251.915665 796.842224,244.859924 
	C807.468323,242.966232 818.032349,240.723068 828.660461,238.841949 
	C837.597107,237.260223 841.648682,240.956757 840.867188,249.983047 
	C838.305237,279.571991 835.543274,309.143829 833.040283,338.737640 
	C831.462036,357.397095 830.217041,376.084625 828.804199,394.758179 
	C828.473938,399.123566 828.089661,403.631287 823.535339,405.844940 
	C818.473083,408.305450 814.160278,406.192047 810.285889,402.875580 
	C797.891663,392.266205 785.524109,381.625763 773.140137,371.004486 
	C772.649048,370.583313 772.095337,370.235229 771.376953,369.711884 
	C737.429932,406.508423 703.559937,443.221497 669.323242,479.709778 
	C666.429138,475.384399 662.256592,475.165405 659.085144,477.228455 
	C654.477051,480.226135 650.714844,484.512695 646.532104,488.181458 
	C644.976318,489.546143 643.244751,490.709198 641.606567,491.981415 
	C639.625977,493.519592 637.584717,494.990875 635.703125,496.643127 
	C632.290405,499.639893 629.154785,502.981628 625.563843,505.736664 
	C622.768921,507.880951 619.195923,509.020752 616.436035,511.199097 
	C611.934143,514.752502 608.313416,519.743225 603.378540,522.329224 
	C599.170776,524.534180 593.652283,524.727722 588.685730,524.875183 
	C581.901367,525.076660 575.076355,523.990540 568.296448,524.232178 
	C564.073425,524.382751 559.934204,526.172058 555.697021,526.846252 
	C551.639587,527.492004 547.807251,527.236694 545.276367,522.973022 
	C544.323669,521.368103 542.390076,520.227844 540.706360,519.198242 
	C536.894531,516.867432 532.284241,515.414978 529.230225,512.370117 
	C524.367615,507.521973 519.802917,509.409302 515.070618,510.743744 
	C515.741455,513.871826 516.320862,516.573669 516.900330,519.275574 
	C501.484863,507.738647 486.069397,496.201721 470.512512,484.558990 
	C461.905762,493.499054 453.493774,502.236816 444.623596,510.824860 
	C438.525513,503.959595 436.828674,503.487579 431.566010,508.106995 
	C423.739471,514.976929 416.211121,522.186768 408.383484,529.055420 
	C402.038269,534.623291 395.460327,539.927673 388.927368,545.277771 
	C388.061707,545.986694 386.869873,546.646851 385.798737,546.698364 
	C379.038055,547.023499 372.259186,547.023254 365.508026,547.463562 
	C363.423309,547.599609 360.826538,548.209167 359.477051,549.591064 
	C356.504730,552.634705 353.961700,552.502380 350.731140,550.267517 
	C348.472748,548.705200 345.906647,547.580872 343.451904,546.311340 
	C341.103943,545.096985 337.849274,544.560669 336.513916,542.658630 
	C331.926239,536.124390 326.408142,533.862000 318.912598,536.892517 
z" data-index="1" style="opacity: 1; visibility: visible;"></path>
<path fill="#3CA7FA" opacity="1.000000" stroke="none" d="
M318.937256,536.913086 
	C326.408142,533.862000 331.926239,536.124390 336.513916,542.658630 
	C337.849274,544.560669 341.103943,545.096985 343.451904,546.311340 
	C345.906647,547.580872 348.472748,548.705200 350.731140,550.267517 
	C353.961700,552.502380 356.504730,552.634705 359.477051,549.591064 
	C360.826538,548.209167 363.423309,547.599609 365.508026,547.463562 
	C372.259186,547.023254 379.038055,547.023499 385.798737,546.698364 
	C386.869873,546.646851 388.061707,545.986694 388.927368,545.277771 
	C395.460327,539.927673 402.038269,534.623291 408.383484,529.055420 
	C416.211121,522.186768 423.739471,514.976929 431.566010,508.106995 
	C436.828674,503.487579 438.525513,503.959595 444.358643,511.007538 
	C444.551880,511.339935 444.543060,511.357208 444.194031,511.432800 
	C442.905212,512.685547 441.965424,513.862671 441.025635,515.039795 
	C441.025635,515.039795 441.001099,514.997498 440.834778,515.160522 
	C440.427155,515.539917 440.209778,515.778015 440.016357,516.038025 
	C428.417938,528.224854 416.819550,540.411682 404.593567,552.838440 
	C403.102142,554.177979 402.238312,555.277588 401.374451,556.377258 
	C401.374481,556.377258 401.335999,556.256348 401.156952,556.400635 
	C400.743469,556.843628 400.509003,557.142212 400.274567,557.440857 
	C400.274567,557.440857 400.262482,557.239563 400.122070,557.394470 
	C399.747040,557.846375 399.512482,558.143372 399.277893,558.440369 
	C399.277893,558.440369 399.263672,558.239014 399.126801,558.398682 
	C398.765533,558.863647 398.541138,559.168945 398.316742,559.474182 
	C398.316742,559.474182 398.330597,559.315796 398.074799,559.408752 
	C397.084198,560.514771 396.349396,561.527832 395.614563,562.540894 
	C395.614563,562.540894 395.516449,562.493042 395.219727,562.570801 
	C394.282684,563.430908 393.642334,564.213379 393.001953,564.995789 
	C380.024841,578.622803 367.047729,592.249817 353.686035,605.608398 
	C353.384857,604.036072 353.471100,602.732422 353.551025,601.428406 
	C353.643372,599.920715 353.730133,598.412659 353.819336,596.904785 
	C352.087952,596.933350 350.252655,596.606323 348.649689,597.074585 
	C346.297150,597.761963 344.135712,599.816345 341.848999,599.888000 
	C333.664825,600.144409 325.462158,599.811523 317.266510,599.700317 
	C315.814850,599.680664 314.128479,599.162292 312.953979,599.721558 
	C308.786743,601.705811 306.944305,599.755371 304.516724,596.475220 
	C301.438141,592.315491 299.235077,586.873108 292.831879,586.023865 
	C286.654144,585.204468 280.584991,582.062683 274.355927,585.885193 
	C273.758881,586.251587 272.728668,585.912170 271.899567,585.900391 
	C285.065643,572.027283 298.231720,558.154236 311.801025,544.164551 
	C312.401642,543.943115 312.435760,543.780151 312.306549,543.559021 
	C312.306549,543.559021 312.307495,543.347351 312.775024,543.445068 
	C314.504120,543.079590 315.765747,542.616394 317.027344,542.153198 
	C316.681946,541.437073 316.336517,540.720947 315.991150,540.004822 
	C316.461700,539.399719 316.932251,538.794617 317.861542,537.913696 
	C318.558563,537.403259 318.771057,537.147095 318.957703,536.869507 
	C318.957703,536.869507 318.961884,536.933594 318.937256,536.913086 
z" data-index="2" style="opacity: 1; visibility: visible;"></path>
<path fill="#4599FB" opacity="1.000000" stroke="none" d="
M206.051514,655.183411 
	C217.698441,642.878174 229.345367,630.572937 241.700256,618.122070 
	C243.403076,617.915100 244.613708,618.199097 245.356781,617.734802 
	C249.346237,615.242371 251.851929,616.840637 254.509048,620.110962 
	C256.631989,622.723755 259.450897,626.326355 262.205231,626.555786 
	C268.445190,627.075317 270.063507,630.419006 270.657654,635.532776 
	C270.848694,637.177124 271.213684,638.820068 271.680725,640.410278 
	C273.425415,646.350525 275.886932,647.431335 281.142395,644.142456 
	C283.923523,642.402161 286.072418,642.189331 288.811737,644.229614 
	C292.415192,646.913391 294.579132,645.739319 296.965668,641.614136 
	C298.333984,639.248901 300.617249,636.638489 303.048340,635.837585 
	C307.062805,634.515137 311.520447,634.397766 315.813110,634.150208 
	C317.016052,634.080933 319.240997,635.233032 319.324127,636.005066 
	C319.458252,637.251038 318.539429,639.112915 317.467834,639.880981 
	C315.277039,641.451050 314.416718,642.875183 316.317719,645.141541 
	C315.330872,646.300598 314.343994,647.459595 312.822937,648.902100 
	C311.956268,649.617065 311.623749,650.048645 311.291260,650.480225 
	C311.291290,650.480225 311.252502,650.245789 311.123840,650.398682 
	C310.757233,650.863647 310.519257,651.175659 310.281311,651.487671 
	C310.281311,651.487671 310.262665,651.243652 310.137665,651.404541 
	C309.776947,651.877563 309.541229,652.189758 309.305481,652.501953 
	C309.305481,652.501953 309.286957,652.268127 309.154572,652.423340 
	C308.783997,652.886780 308.545807,653.194885 308.307617,653.503052 
	C308.307617,653.503052 308.289001,653.270569 308.155975,653.425171 
	C307.784943,653.887573 307.546936,654.195251 307.308899,654.502991 
	C307.308899,654.502991 307.290344,654.268494 307.164185,654.428894 
	C306.817139,654.905701 306.596252,655.222046 306.375366,655.538452 
	C306.375366,655.538452 306.393524,655.383240 306.130127,655.460083 
	C305.138824,656.538208 304.410889,657.539612 303.682953,658.540955 
	C303.682953,658.540955 303.673248,658.616699 303.360931,658.688843 
	C302.707733,659.185364 302.366852,659.609680 302.025970,660.033997 
	C291.263275,671.354065 280.500580,682.674133 269.240204,693.847168 
	C265.748993,690.735779 262.458221,689.430664 258.464111,691.791443 
	C254.622330,694.062073 250.677505,696.171143 246.938721,698.598755 
	C244.387085,700.255676 243.185822,699.797241 241.368591,697.283325 
	C239.700439,694.975708 236.942078,693.209229 234.317947,691.895874 
	C230.059372,689.764465 225.161667,688.814636 223.327026,683.399109 
	C222.873352,682.059998 221.143311,680.634583 219.722260,680.233887 
	C214.331650,678.713928 212.210663,674.135193 211.551834,669.786255 
	C210.706985,664.209473 210.187759,659.310547 203.734421,657.745850 
	C203.734421,657.745850 203.782318,657.861389 203.955444,657.706055 
	C204.374283,657.253845 204.619980,656.957092 204.865692,656.660339 
	C204.865707,656.660339 204.856934,656.882385 204.988129,656.723999 
	C205.430069,656.104858 205.740799,655.644104 206.051514,655.183411 
z" data-index="3" style="opacity: 1; visibility: visible; fill: rgb(55, 172, 248);"></path>
<path fill="#419FFB" opacity="1.000000" stroke="none" d="
M316.614380,645.005737 
	C314.416718,642.875183 315.277039,641.451050 317.467834,639.880981 
	C318.539429,639.112915 319.458252,637.251038 319.324127,636.005066 
	C319.240997,635.233032 317.016052,634.080933 315.813110,634.150208 
	C311.520447,634.397766 307.062805,634.515137 303.048340,635.837585 
	C300.617249,636.638489 298.333984,639.248901 296.965668,641.614136 
	C294.579132,645.739319 292.415192,646.913391 288.811737,644.229614 
	C286.072418,642.189331 283.923523,642.402161 281.142395,644.142456 
	C275.886932,647.431335 273.425415,646.350525 271.680725,640.410278 
	C271.213684,638.820068 270.848694,637.177124 270.657654,635.532776 
	C270.063507,630.419006 268.445190,627.075317 262.205231,626.555786 
	C259.450897,626.326355 256.631989,622.723755 254.509048,620.110962 
	C251.851929,616.840637 249.346237,615.242371 245.356781,617.734802 
	C244.613708,618.199097 243.403076,617.915100 241.971466,617.968506 
	C249.312576,609.715515 257.090424,601.470459 265.261719,592.908325 
	C265.776947,592.427673 265.894348,592.261047 266.007324,592.091248 
	C266.007324,592.091248 265.976685,592.030029 266.404602,592.014038 
	C271.252869,592.227173 272.097351,589.482422 271.916260,585.884888 
	C271.916260,585.884888 271.945862,585.931458 271.922729,585.915894 
	C272.728668,585.912170 273.758881,586.251587 274.355927,585.885193 
	C280.584991,582.062683 286.654144,585.204468 292.831879,586.023865 
	C299.235077,586.873108 301.438141,592.315491 304.516724,596.475220 
	C306.944305,599.755371 308.786743,601.705811 312.953979,599.721558 
	C314.128479,599.162292 315.814850,599.680664 317.266510,599.700317 
	C325.462158,599.811523 333.664825,600.144409 341.848999,599.888000 
	C344.135712,599.816345 346.297150,597.761963 348.649689,597.074585 
	C350.252655,596.606323 352.087952,596.933350 353.819336,596.904785 
	C353.730133,598.412659 353.643372,599.920715 353.551025,601.428406 
	C353.471100,602.732422 353.384857,604.036072 353.399231,605.741760 
	C353.497070,606.143677 353.464783,606.087769 353.217163,606.304993 
	C352.734222,606.845642 352.498901,607.169006 352.263580,607.492432 
	C352.263580,607.492432 352.297821,607.280457 352.063293,607.382690 
	C351.057953,608.510376 350.287170,609.535706 349.516357,610.561096 
	C349.516357,610.561096 349.501740,610.482910 349.214478,610.532532 
	C348.286987,611.385437 347.646759,612.188721 347.006531,612.992004 
	C336.974701,623.617981 326.942871,634.243958 316.614380,645.005737 
z" data-index="4" style="opacity: 1; visibility: visible; fill: rgb(55, 172, 248);"></path>
<path fill="#3CA7FA" opacity="1.000000" stroke="none" d="
M517.049622,519.521484 
	C516.320862,516.573669 515.741455,513.871826 515.070618,510.743744 
	C519.802917,509.409302 524.367615,507.521973 529.230225,512.370117 
	C532.284241,515.414978 536.894531,516.867432 540.706360,519.198242 
	C542.390076,520.227844 544.323669,521.368103 545.276367,522.973022 
	C547.807251,527.236694 551.639587,527.492004 555.697021,526.846252 
	C559.934204,526.172058 564.073425,524.382751 568.296448,524.232178 
	C575.076355,523.990540 581.901367,525.076660 588.685730,524.875183 
	C593.652283,524.727722 599.170776,524.534180 603.378540,522.329224 
	C608.313416,519.743225 611.934143,514.752502 616.436035,511.199097 
	C619.195923,509.020752 622.768921,507.880951 625.563843,505.736664 
	C629.154785,502.981628 632.290405,499.639893 635.703125,496.643127 
	C637.584717,494.990875 639.625977,493.519592 641.606567,491.981415 
	C643.244751,490.709198 644.976318,489.546143 646.532104,488.181458 
	C650.714844,484.512695 654.477051,480.226135 659.085144,477.228455 
	C662.256592,475.165405 666.429138,475.384399 669.020264,479.866028 
	C654.544556,496.252777 640.042786,512.293091 625.448486,528.248657 
	C618.966064,535.335754 612.557129,542.521484 605.657532,549.189209 
	C591.636353,562.739014 570.729614,562.147522 556.321777,548.747375 
	C551.279907,544.058105 545.070862,540.623718 539.230225,536.207397 
	C538.954651,535.607666 538.791748,535.578857 538.576904,535.712097 
	C538.576904,535.712097 538.476318,535.725708 538.357727,535.397705 
	C537.749878,534.770325 537.260620,534.470886 536.771362,534.171448 
	C536.771362,534.171448 536.843750,534.157715 536.796814,533.805298 
	C536.197083,530.238586 533.939026,529.900635 531.292786,530.217651 
	C529.920898,529.147583 528.548950,528.077515 527.011719,526.375671 
	C525.469727,520.743042 523.612183,519.647461 520.003479,521.707642 
	C519.068604,521.060852 518.133789,520.414124 517.049622,519.521484 
z" data-index="5" style="opacity: 1; visibility: visible; fill: rgb(55, 172, 248);"></path>
<path fill="#4D95FA" opacity="1.000000" stroke="none" d="
M203.428436,657.891785 
	C210.187759,659.310547 210.706985,664.209473 211.551834,669.786255 
	C212.210663,674.135193 214.331650,678.713928 219.722260,680.233887 
	C221.143311,680.634583 222.873352,682.059998 223.327026,683.399109 
	C225.161667,688.814636 230.059372,689.764465 234.317947,691.895874 
	C236.942078,693.209229 239.700439,694.975708 241.368591,697.283325 
	C243.185822,699.797241 244.387085,700.255676 246.938721,698.598755 
	C250.677505,696.171143 254.622330,694.062073 258.464111,691.791443 
	C262.458221,689.430664 265.748993,690.735779 268.938477,694.007019 
	C261.353882,702.611206 253.457764,710.803894 245.819717,719.230408 
	C234.111832,732.147034 216.886948,735.054138 201.489502,726.475525 
	C186.147888,717.927917 178.750290,701.270691 183.007584,684.548645 
	C184.929016,677.001465 189.899902,671.420837 195.345917,666.169189 
	C198.043457,663.567932 200.536758,660.754883 203.428436,657.891785 
z" data-index="6" style="opacity: 1; visibility: visible; fill: rgb(55, 172, 248);"></path>
<path fill="#37ACF8" opacity="1.000000" stroke="none" d="
M520.235107,521.967773 
	C523.612183,519.647461 525.469727,520.743042 526.835693,526.139404 
	C524.705505,525.099304 522.586182,523.663574 520.235107,521.967773 
z" data-index="7" style="visibility: visible; opacity: 1;"></path>
<path fill="#3CA7FA" opacity="1.000000" stroke="none" d="
M271.613434,586.019958 
	C272.097351,589.482422 271.252869,592.227173 266.435974,592.000427 
	C267.796509,590.053467 269.553558,588.104248 271.613434,586.019958 
z" data-index="8"></path>
<path fill="#37ACF8" opacity="1.000000" stroke="none" d="
M315.721344,540.119629 
	C316.336517,540.720947 316.681946,541.437073 317.027344,542.153198 
	C315.765747,542.616394 314.504120,543.079590 312.880249,543.433960 
	C312.517975,543.325134 312.692688,543.060730 313.034119,542.895142 
	C313.611206,542.524109 313.822052,542.295593 314.008057,542.044189 
	C314.489227,541.440979 314.970398,540.837708 315.721344,540.119629 
z" data-index="9"></path>
<path fill="#37ACF8" opacity="1.000000" stroke="none" d="
M531.504517,530.499023 
	C533.939026,529.900635 536.197083,530.238586 536.794006,533.842041 
	C535.130859,533.080994 533.423523,531.930725 531.504517,530.499023 
z" data-index="10"></path>
<path fill="#419FFB" opacity="1.000000" stroke="none" d="
M401.636688,556.235168 
	C402.238312,555.277588 403.102142,554.177979 404.303314,553.037842 
	C403.726746,554.029236 402.812836,555.061157 401.636688,556.235168 
z" data-index="11"></path>
<path fill="#37ACF8" opacity="1.000000" stroke="none" d="
M441.319489,514.910278 
	C441.965424,513.862671 442.905212,512.685547 444.185059,511.436584 
	C443.554504,512.503418 442.583923,513.642090 441.319489,514.910278 
z" data-index="12"></path>
<path fill="#4D95FA" opacity="1.000000" stroke="none" d="
M303.926331,658.359802 
	C304.410889,657.539612 305.138824,656.538208 306.206818,655.475098 
	C305.754486,656.335083 304.962097,657.256897 303.926331,658.359802 
z" data-index="13"></path>
<path fill="#419FFB" opacity="1.000000" stroke="none" d="
M395.857025,562.350586 
	C396.349396,561.527832 397.084198,560.514771 398.153381,559.420654 
	C397.691681,560.279907 396.895569,561.220093 395.857025,562.350586 
z" data-index="14"></path>
<path fill="#3CA7FA" opacity="1.000000" stroke="none" d="
M349.768616,610.369202 
	C350.287170,609.535706 351.057953,608.510376 352.168457,607.404236 
	C351.679047,608.274780 350.849945,609.226013 349.768616,610.369202 
z" data-index="15"></path>
<path fill="#419FFB" opacity="1.000000" stroke="none" d="
M393.281189,564.889709 
	C393.642334,564.213379 394.282684,563.430908 395.246338,562.618469 
	C394.899872,563.320129 394.230133,564.051880 393.281189,564.889709 
z" data-index="16"></path>
<path fill="#3CA7FA" opacity="1.000000" stroke="none" d="
M347.295593,612.891235 
	C347.646759,612.188721 348.286987,611.385437 349.254211,610.534546 
	C348.915680,611.254700 348.250153,612.022583 347.295593,612.891235 
z" data-index="17"></path>
<path fill="#37ACF8" opacity="1.000000" stroke="none" d="
M536.901611,534.424133 
	C537.260620,534.470886 537.749878,534.770325 538.341248,535.349731 
	C537.972839,535.312073 537.502319,534.994446 536.901611,534.424133 
z" data-index="18"></path>
<path fill="#4D95FA" opacity="1.000000" stroke="none" d="
M302.280640,659.942871 
	C302.366852,659.609680 302.707733,659.185364 303.323090,658.694214 
	C303.243469,659.035461 302.889374,659.443542 302.280640,659.942871 
z" data-index="19"></path>
<path fill="#4D95FA" opacity="1.000000" stroke="none" d="
M205.796219,655.310120 
	C205.740799,655.644104 205.430069,656.104858 204.877197,656.717590 
	C204.937012,656.391968 205.238968,655.914368 205.796219,655.310120 
z" data-index="20"></path>
<path fill="#4D95FA" opacity="1.000000" stroke="none" d="
M311.544006,650.360474 
	C311.623749,650.048645 311.956268,649.617065 312.539673,649.066711 
	C312.459320,649.378906 312.128052,649.809814 311.544006,650.360474 
z" data-index="21"></path>
<path fill="#37ACF8" opacity="1.000000" stroke="none" d="
M538.657410,535.838623 
	C538.791748,535.578857 538.954651,535.607666 539.051086,535.895996 
	C539.036499,535.993469 538.737915,535.965088 538.657410,535.838623 
z" data-index="22"></path>
<path fill="#3CA7FA" opacity="1.000000" stroke="none" d="
M352.538879,607.345947 
	C352.498901,607.169006 352.734222,606.845642 353.205933,606.331909 
	C353.232910,606.494202 353.023529,606.846802 352.538879,607.345947 
z" data-index="23"></path>
<path fill="#3CA7FA" opacity="1.000000" stroke="none" d="
M265.866821,592.173340 
	C265.894348,592.261047 265.776947,592.427673 265.563721,592.710205 
	C265.463867,592.596802 265.548553,592.405518 265.866821,592.173340 
z" data-index="24"></path>
<path fill="#37ACF8" opacity="1.000000" stroke="none" d="
M318.706055,536.962769 
	C318.771057,537.147095 318.558563,537.403259 318.132690,537.801697 
	C318.114868,537.662292 318.284607,537.359192 318.706055,536.962769 
z" data-index="25"></path>
<path fill="#37ACF8" opacity="1.000000" stroke="none" d="
M440.266174,515.961792 
	C440.209778,515.778015 440.427155,515.539917 440.856781,515.171387 
	C440.868713,515.307922 440.692383,515.596680 440.266174,515.961792 
z" data-index="26"></path>
<path fill="#419FFB" opacity="1.000000" stroke="none" d="
M398.577637,559.340271 
	C398.541138,559.168945 398.765533,558.863647 399.227661,558.395630 
	C399.256439,558.557312 399.047485,558.881836 398.577637,559.340271 
z" data-index="27"></path>
<path fill="#4D95FA" opacity="1.000000" stroke="none" d="
M310.552460,651.350464 
	C310.519257,651.175659 310.757233,650.863647 311.241638,650.383118 
	C311.266602,650.547485 311.045105,650.880371 310.552460,651.350464 
z" data-index="28"></path>
<path fill="#4D95FA" opacity="1.000000" stroke="none" d="
M309.572906,652.362000 
	C309.541229,652.189758 309.776947,651.877563 310.259918,651.399170 
	C310.284882,651.562683 310.062622,651.892334 309.572906,652.362000 
z" data-index="29"></path>
<path fill="#4D95FA" opacity="1.000000" stroke="none" d="
M308.574463,653.366028 
	C308.545807,653.194885 308.783997,652.886780 309.271790,652.418518 
	C309.294647,652.581970 309.067963,652.905518 308.574463,653.366028 
z" data-index="30"></path>
<path fill="#4D95FA" opacity="1.000000" stroke="none" d="
M307.575562,654.366455 
	C307.546936,654.195251 307.784943,653.887573 308.272522,653.420288 
	C308.295441,653.583801 308.068848,653.906860 307.575562,654.366455 
z" data-index="31"></path>
<path fill="#4D95FA" opacity="1.000000" stroke="none" d="
M306.629333,655.387573 
	C306.596252,655.222046 306.817139,654.905701 307.281708,654.424072 
	C307.311340,654.584778 307.097321,654.910767 306.629333,655.387573 
z" data-index="32"></path>
<path fill="#419FFB" opacity="1.000000" stroke="none" d="
M399.544830,558.317139 
	C399.512482,558.143372 399.747040,557.846375 400.222839,557.392456 
	C400.246643,557.554932 400.029205,557.874390 399.544830,558.317139 
z" data-index="33"></path>
<path fill="#419FFB" opacity="1.000000" stroke="none" d="
M400.540649,557.314270 
	C400.509003,557.142212 400.743469,556.843628 401.218628,556.385925 
	C401.241852,556.547119 401.024292,556.867371 400.540649,557.314270 
z" data-index="34"></path>
<path fill="#4D95FA" opacity="1.000000" stroke="none" d="
M204.580338,656.771606 
	C204.619980,656.957092 204.374283,657.253845 203.896667,657.727295 
	C203.874832,657.563660 204.084915,657.223267 204.580338,656.771606 
z" data-index="35"></path>
<path fill="#3CA7FA" opacity="1.000000" stroke="none" d="
M313.766846,542.115479 
	C313.822052,542.295593 313.611206,542.524109 313.191406,542.875671 
	C313.180054,542.743408 313.352875,542.465088 313.766846,542.115479 
z" data-index="36"></path>
<path fill="#37ACF8" opacity="1.000000" stroke="none" d="
M312.176575,543.635315 
	C312.435760,543.780151 312.401642,543.943115 312.106384,544.029297 
	C312.008545,544.010620 312.046631,543.711609 312.176575,543.635315 
z" data-index="37"></path>
</svg>